<?xml version="1.0" encoding="UTF-8"?>
<svg width="20px" height="13px" viewBox="0 0 20 13" version="1.1" xmlns="http://www.w3.org/2000/svg" xmlns:xlink="http://www.w3.org/1999/xlink">
    <defs></defs>
    <g id="Page-1" stroke="none" stroke-width="1" fill="none" fill-rule="evenodd">
        <g id="Project-Detail" transform="translate(-1802.000000, -38.000000)" fill="#1769FF">
            <g id="navigation-and-logo">
                <path d="M1820,40.2463235 L1814.98438,40.2463235 L1814.98438,39.0036765 L1820,39.0036765 L1820,40.2463235 Z M1811.75,45.0496324 C1812.125,45.6072332 1812.3125,46.2843097 1812.3125,47.0808824 C1812.3125,47.7181404 1812.1875,48.2757329 1811.9375,48.7536765 C1811.71875,49.1997571 1811.39063,49.566175 1810.95312,49.8529412 C1810.57812,50.1397073 1810.10938,50.3627443 1809.54688,50.5220588 C1809.10937,50.6495104 1808.57813,50.7132353 1807.95312,50.7132353 L1802,50.7132353 L1802,38 L1807.8125,38 C1808.1875,38 1808.71875,38.0796561 1809.40625,38.2389706 C1809.8125,38.3345593 1810.21875,38.5257339 1810.625,38.8125 C1810.96875,39.0355403 1811.25,39.3541646 1811.46875,39.7683824 C1811.65625,40.1826001 1811.75,40.6764677 1811.75,41.25 C1811.75,41.8872581 1811.60156,42.4209537 1811.30469,42.8511029 C1811.00781,43.2812522 1810.59375,43.6237732 1810.0625,43.8786765 C1810.8125,44.1017168 1811.375,44.4920315 1811.75,45.0496324 Z M1804.57812,43.1139706 L1807.4375,43.1139706 C1807.96875,43.1139706 1808.375,43.0183833 1808.65625,42.8272059 C1808.96875,42.6041656 1809.125,42.2377476 1809.125,41.7279412 C1809.125,41.441175 1809.07031,41.2022068 1808.96094,41.0110294 C1808.85156,40.819852 1808.70313,40.6764711 1808.51562,40.5808824 C1808.32812,40.4534307 1808.14063,40.3737747 1807.95312,40.3419118 C1807.67187,40.278186 1807.4375,40.2463235 1807.25,40.2463235 L1804.57812,40.2463235 L1804.57812,43.1139706 Z M1809.59375,46.9375 C1809.59375,46.3002419 1809.42188,45.8382367 1809.07812,45.5514706 C1808.73437,45.2965674 1808.26563,45.1691176 1807.67188,45.1691176 L1804.57812,45.1691176 L1804.57812,48.6580882 L1807.57812,48.6580882 C1807.79688,48.6580882 1808.0625,48.6262258 1808.375,48.5625 C1808.625,48.4987742 1808.83594,48.4111525 1809.00781,48.2996324 C1809.17969,48.1881122 1809.32812,48.0049032 1809.45312,47.75 C1809.54688,47.5588226 1809.59375,47.2879919 1809.59375,46.9375 Z M1821.96875,46.7941176 L1815.54688,46.7941176 C1815.54688,47.5588274 1815.75,48.1482822 1816.15625,48.5625 C1816.53125,48.9129919 1817.0625,49.0882353 1817.75,49.0882353 C1818.21875,49.0882353 1818.64062,48.9607856 1819.01562,48.7058824 C1819.39063,48.4191162 1819.60937,48.1323544 1819.67188,47.8455882 L1821.82812,47.8455882 C1821.51562,48.9607899 1820.98438,49.7573506 1820.23438,50.2352941 C1819.48437,50.7451006 1818.625,51 1817.65625,51 C1816.96875,51 1816.34375,50.8884815 1815.78125,50.6654412 C1815.21875,50.4424008 1814.73438,50.1078454 1814.32812,49.6617647 C1813.92187,49.2475469 1813.625,48.7377481 1813.4375,48.1323529 C1813.21875,47.5588207 1813.10938,46.9215721 1813.10938,46.2205882 C1813.10938,45.5196043 1813.21875,44.8743902 1813.4375,44.2849265 C1813.65625,43.6954627 1813.96875,43.1776983 1814.375,42.7316176 C1814.78125,42.3173999 1815.25,41.9828444 1815.78125,41.7279412 C1816.34375,41.4730379 1816.96875,41.3455882 1817.65625,41.3455882 C1818.40625,41.3455882 1819.0625,41.4969348 1819.625,41.7996324 C1820.1875,42.1023299 1820.65625,42.5085759 1821.03125,43.0183824 C1821.375,43.4963259 1821.64062,44.0857808 1821.82812,44.7867647 C1821.98438,45.4558857 1822.03125,46.1249967 1821.96875,46.7941176 Z M1819.53125,45.1691176 C1819.46875,44.5955854 1819.28125,44.117649 1818.96875,43.7352941 C1818.6875,43.4166651 1818.23438,43.2573529 1817.60938,43.2573529 C1817.20312,43.2573529 1816.875,43.3290434 1816.625,43.4724265 C1816.375,43.6158095 1816.16406,43.7830873 1815.99219,43.9742647 C1815.82031,44.1654421 1815.71875,44.3725479 1815.6875,44.5955882 C1815.59375,44.8186286 1815.54688,45.0098031 1815.54688,45.1691176 L1819.53125,45.1691176 Z" id="ic_behance_hover"></path>
            </g>
        </g>
    </g>
</svg>