<?xml version="1.0" encoding="UTF-8"?>
<svg width="20px" height="13px" viewBox="0 0 20 13" version="1.1" xmlns="http://www.w3.org/2000/svg" xmlns:xlink="http://www.w3.org/1999/xlink">
    <defs></defs>
    <g id="Page-1" stroke="none" stroke-width="1" fill="none" fill-rule="evenodd">
        <g id="Home" transform="translate(-1802.000000, -38.000000)" fill="#222222">
            <g id="navigation-and-logo" transform="translate(60.000000, 5.000000)">
                <path d="M1760,35.2463235 L1754.98438,35.2463235 L1754.98438,34.0036765 L1760,34.0036765 L1760,35.2463235 Z M1751.75,40.0496324 C1752.125,40.6072332 1752.3125,41.2843097 1752.3125,42.0808824 C1752.3125,42.7181404 1752.1875,43.2757329 1751.9375,43.7536765 C1751.71875,44.1997571 1751.39063,44.566175 1750.95312,44.8529412 C1750.57812,45.1397073 1750.10938,45.3627443 1749.54688,45.5220588 C1749.10937,45.6495104 1748.57813,45.7132353 1747.95312,45.7132353 L1742,45.7132353 L1742,33 L1747.8125,33 C1748.1875,33 1748.71875,33.0796561 1749.40625,33.2389706 C1749.8125,33.3345593 1750.21875,33.5257339 1750.625,33.8125 C1750.96875,34.0355403 1751.25,34.3541646 1751.46875,34.7683824 C1751.65625,35.1826001 1751.75,35.6764677 1751.75,36.25 C1751.75,36.8872581 1751.60156,37.4209537 1751.30469,37.8511029 C1751.00781,38.2812522 1750.59375,38.6237732 1750.0625,38.8786765 C1750.8125,39.1017168 1751.375,39.4920315 1751.75,40.0496324 Z M1744.57812,38.1139706 L1747.4375,38.1139706 C1747.96875,38.1139706 1748.375,38.0183833 1748.65625,37.8272059 C1748.96875,37.6041656 1749.125,37.2377476 1749.125,36.7279412 C1749.125,36.441175 1749.07031,36.2022068 1748.96094,36.0110294 C1748.85156,35.819852 1748.70313,35.6764711 1748.51562,35.5808824 C1748.32812,35.4534307 1748.14063,35.3737747 1747.95312,35.3419118 C1747.67187,35.278186 1747.4375,35.2463235 1747.25,35.2463235 L1744.57812,35.2463235 L1744.57812,38.1139706 Z M1749.59375,41.9375 C1749.59375,41.3002419 1749.42188,40.8382367 1749.07812,40.5514706 C1748.73437,40.2965674 1748.26563,40.1691176 1747.67188,40.1691176 L1744.57812,40.1691176 L1744.57812,43.6580882 L1747.57812,43.6580882 C1747.79688,43.6580882 1748.0625,43.6262258 1748.375,43.5625 C1748.625,43.4987742 1748.83594,43.4111525 1749.00781,43.2996324 C1749.17969,43.1881122 1749.32812,43.0049032 1749.45312,42.75 C1749.54688,42.5588226 1749.59375,42.2879919 1749.59375,41.9375 Z M1761.96875,41.7941176 L1755.54688,41.7941176 C1755.54688,42.5588274 1755.75,43.1482822 1756.15625,43.5625 C1756.53125,43.9129919 1757.0625,44.0882353 1757.75,44.0882353 C1758.21875,44.0882353 1758.64062,43.9607856 1759.01562,43.7058824 C1759.39063,43.4191162 1759.60937,43.1323544 1759.67188,42.8455882 L1761.82812,42.8455882 C1761.51562,43.9607899 1760.98438,44.7573506 1760.23438,45.2352941 C1759.48437,45.7451006 1758.625,46 1757.65625,46 C1756.96875,46 1756.34375,45.8884815 1755.78125,45.6654412 C1755.21875,45.4424008 1754.73438,45.1078454 1754.32812,44.6617647 C1753.92187,44.2475469 1753.625,43.7377481 1753.4375,43.1323529 C1753.21875,42.5588207 1753.10938,41.9215721 1753.10938,41.2205882 C1753.10938,40.5196043 1753.21875,39.8743902 1753.4375,39.2849265 C1753.65625,38.6954627 1753.96875,38.1776983 1754.375,37.7316176 C1754.78125,37.3173999 1755.25,36.9828444 1755.78125,36.7279412 C1756.34375,36.4730379 1756.96875,36.3455882 1757.65625,36.3455882 C1758.40625,36.3455882 1759.0625,36.4969348 1759.625,36.7996324 C1760.1875,37.1023299 1760.65625,37.5085759 1761.03125,38.0183824 C1761.375,38.4963259 1761.64062,39.0857808 1761.82812,39.7867647 C1761.98438,40.4558857 1762.03125,41.1249967 1761.96875,41.7941176 Z M1759.53125,40.1691176 C1759.46875,39.5955854 1759.28125,39.117649 1758.96875,38.7352941 C1758.6875,38.4166651 1758.23438,38.2573529 1757.60938,38.2573529 C1757.20312,38.2573529 1756.875,38.3290434 1756.625,38.4724265 C1756.375,38.6158095 1756.16406,38.7830873 1755.99219,38.9742647 C1755.82031,39.1654421 1755.71875,39.3725479 1755.6875,39.5955882 C1755.59375,39.8186286 1755.54688,40.0098031 1755.54688,40.1691176 L1759.53125,40.1691176 Z" id="ic_behance"></path>
            </g>
        </g>
    </g>
</svg>