<?xml version="1.0" encoding="UTF-8"?>
<svg width="18px" height="18px" viewBox="0 0 18 18" version="1.1" xmlns="http://www.w3.org/2000/svg" xmlns:xlink="http://www.w3.org/1999/xlink">
    <defs></defs>
    <g id="Page-1" stroke="none" stroke-width="1" fill="none" fill-rule="evenodd">
        <g id="Home" transform="translate(-1842.000000, -36.000000)" fill="#222222">
            <g id="navigation-and-logo" transform="translate(60.000000, 5.000000)">
                <path d="M1794.98361,45.7962529 C1796.55738,44.6721255 1797.52693,43.1686277 1797.89227,41.2857143 C1796.90866,41.0608888 1795.98127,40.9484778 1795.11007,40.9484778 C1794.63232,40.9484778 1794.15457,40.9906319 1793.67681,41.0749415 C1794.21078,42.676823 1794.64637,44.2505778 1794.98361,45.7962529 Z M1790.97892,47.0187354 C1791.85012,47.0187354 1792.67915,46.8641702 1793.46604,46.5550351 C1793.1288,44.7845345 1792.67916,43.0843173 1792.1171,41.4543326 C1790.74004,41.9039835 1789.51757,42.6346554 1788.44965,43.64637 C1787.80328,44.2646401 1787.25527,44.925055 1786.80562,45.6276347 C1788.04216,46.5550398 1789.43325,47.0187354 1790.97892,47.0187354 Z M1783.98126,40.0210773 C1783.98126,41.7072684 1784.52927,43.1967148 1785.62529,44.4894614 C1786.15925,43.7025722 1786.80562,42.9578489 1787.5644,42.2552693 C1788.74474,41.1873483 1790.06557,40.4145223 1791.52693,39.9367681 C1791.41452,39.6557363 1791.27401,39.3466059 1791.10539,39.0093677 C1789.22247,39.5995346 1787.10071,39.908665 1784.74005,39.9367681 C1784.37471,39.9367681 1784.12178,39.9227168 1783.98126,39.8946136 L1783.98126,40.0210773 Z M1787.90164,33.6978923 C1786.97423,34.1475432 1786.18736,34.7798554 1785.54098,35.5948478 C1784.89461,36.4098401 1784.44497,37.3091286 1784.19204,38.29274 C1784.27635,38.3208432 1784.45901,38.3348946 1784.74005,38.3348946 L1784.86651,38.3348946 C1786.83373,38.3348946 1788.67446,38.0679184 1790.38876,37.5339578 C1789.57377,36.0163859 1788.74473,34.7377101 1787.90164,33.6978923 Z M1790.97892,32.9812646 C1790.52927,32.9812646 1790.03747,33.0374702 1789.50351,33.1498829 C1790.40281,34.3302167 1791.20374,35.6088924 1791.90632,36.9859485 C1793.39579,36.3395752 1794.54801,35.5245951 1795.363,34.5409836 C1794.09835,33.5011658 1792.63701,32.9812646 1790.97892,32.9812646 Z M1796.50117,35.6791569 C1795.48946,36.8313875 1794.19673,37.7587787 1792.62295,38.4613583 C1792.73536,38.6861838 1792.88993,39.0374683 1793.08665,39.5152225 C1793.76113,39.4028097 1794.43559,39.3466042 1795.11007,39.3466042 C1796.03748,39.3466042 1797.00702,39.4590153 1798.01874,39.6838407 C1797.93443,38.1943719 1797.42858,36.8594907 1796.50117,35.6791569 Z M1791,31 C1793.48713,31 1795.60889,31.8782114 1797.36534,33.6346604 C1799.12179,35.3911095 1800,37.5128681 1800,40 C1800,42.4871319 1799.12179,44.6088905 1797.36534,46.3653396 C1795.60889,48.1217886 1793.48713,49 1791,49 C1788.51287,49 1786.39111,48.1217886 1784.63466,46.3653396 C1782.87821,44.6088905 1782,42.4871319 1782,40 C1782,37.5128681 1782.87821,35.3911095 1784.63466,33.6346604 C1786.39111,31.8782114 1788.51287,31 1791,31 Z" id="ic_dribble"></path>
            </g>
        </g>
    </g>
</svg>