<?xml version="1.0" encoding="UTF-8"?>
<svg width="18px" height="18px" viewBox="0 0 18 18" version="1.1" xmlns="http://www.w3.org/2000/svg" xmlns:xlink="http://www.w3.org/1999/xlink">
    <defs></defs>
    <g id="Page-1" stroke="none" stroke-width="1" fill="none" fill-rule="evenodd">
        <g id="Project-Detail" transform="translate(-1842.000000, -36.000000)" fill="#EA4C89">
            <g id="navigation-and-logo">
                <path d="M1854.98361,50.7962529 C1856.55738,49.6721255 1857.52693,48.1686277 1857.89227,46.2857143 C1856.90866,46.0608888 1855.98127,45.9484778 1855.11007,45.9484778 C1854.63232,45.9484778 1854.15457,45.9906319 1853.67681,46.0749415 C1854.21078,47.676823 1854.64637,49.2505778 1854.98361,50.7962529 Z M1850.97892,52.0187354 C1851.85012,52.0187354 1852.67915,51.8641702 1853.46604,51.5550351 C1853.1288,49.7845345 1852.67916,48.0843173 1852.1171,46.4543326 C1850.74004,46.9039835 1849.51757,47.6346554 1848.44965,48.64637 C1847.80328,49.2646401 1847.25527,49.925055 1846.80562,50.6276347 C1848.04216,51.5550398 1849.43325,52.0187354 1850.97892,52.0187354 Z M1843.98126,45.0210773 C1843.98126,46.7072684 1844.52927,48.1967148 1845.62529,49.4894614 C1846.15925,48.7025722 1846.80562,47.9578489 1847.5644,47.2552693 C1848.74474,46.1873483 1850.06557,45.4145223 1851.52693,44.9367681 C1851.41452,44.6557363 1851.27401,44.3466059 1851.10539,44.0093677 C1849.22247,44.5995346 1847.10071,44.908665 1844.74005,44.9367681 C1844.37471,44.9367681 1844.12178,44.9227168 1843.98126,44.8946136 L1843.98126,45.0210773 Z M1847.90164,38.6978923 C1846.97423,39.1475432 1846.18736,39.7798554 1845.54098,40.5948478 C1844.89461,41.4098401 1844.44497,42.3091286 1844.19204,43.29274 C1844.27635,43.3208432 1844.45901,43.3348946 1844.74005,43.3348946 L1844.86651,43.3348946 C1846.83373,43.3348946 1848.67446,43.0679184 1850.38876,42.5339578 C1849.57377,41.0163859 1848.74473,39.7377101 1847.90164,38.6978923 Z M1850.97892,37.9812646 C1850.52927,37.9812646 1850.03747,38.0374702 1849.50351,38.1498829 C1850.40281,39.3302167 1851.20374,40.6088924 1851.90632,41.9859485 C1853.39579,41.3395752 1854.54801,40.5245951 1855.363,39.5409836 C1854.09835,38.5011658 1852.63701,37.9812646 1850.97892,37.9812646 Z M1856.50117,40.6791569 C1855.48946,41.8313875 1854.19673,42.7587787 1852.62295,43.4613583 C1852.73536,43.6861838 1852.88993,44.0374683 1853.08665,44.5152225 C1853.76113,44.4028097 1854.43559,44.3466042 1855.11007,44.3466042 C1856.03748,44.3466042 1857.00702,44.4590153 1858.01874,44.6838407 C1857.93443,43.1943719 1857.42858,41.8594907 1856.50117,40.6791569 Z M1851,36 C1853.48713,36 1855.60889,36.8782114 1857.36534,38.6346604 C1859.12179,40.3911095 1860,42.5128681 1860,45 C1860,47.4871319 1859.12179,49.6088905 1857.36534,51.3653396 C1855.60889,53.1217886 1853.48713,54 1851,54 C1848.51287,54 1846.39111,53.1217886 1844.63466,51.3653396 C1842.87821,49.6088905 1842,47.4871319 1842,45 C1842,42.5128681 1842.87821,40.3911095 1844.63466,38.6346604 C1846.39111,36.8782114 1848.51287,36 1851,36 Z" id="ic_dribble_hover"></path>
            </g>
        </g>
    </g>
</svg>