<?xml version="1.0" encoding="UTF-8"?>
<svg width="16px" height="18px" viewBox="0 0 16 18" version="1.1" xmlns="http://www.w3.org/2000/svg" xmlns:xlink="http://www.w3.org/1999/xlink">
    <defs></defs>
    <g id="Page-1" stroke="none" stroke-width="1" fill="none" fill-rule="evenodd">
        <g id="Project-Detail" transform="translate(-1726.000000, -35.000000)" fill-rule="nonzero" fill="#82B541">
            <g id="navigation-and-logo">
                <path d="M1739.59437,35.2052336 C1738.92275,34.851575 1737.36043,34.9598167 1735.524,35.49259 C1734.12884,36.5967776 1729.588,40.5668014 1729.53424,45.5034606 C1729.52992,45.9024044 1728.97475,46.0139447 1728.81411,45.6473744 C1728.38163,44.6604761 1728.03019,43.0132424 1728.5048,40.4811788 C1728.57498,40.1066447 1728.09019,39.8867685 1727.84414,40.1812877 C1727.67884,40.3791574 1727.52204,40.5823992 1727.37481,40.7909187 C1724.47901,44.8924158 1726.54952,50.1492291 1729.95702,51.9763316 C1733.36452,53.8034812 1738.42912,53.3964794 1740.86856,49.0186526 C1743.30801,44.6409201 1741.2935,36.0999121 1739.59437,35.2052336 Z" id="ic_envato_hover"></path>
            </g>
        </g>
    </g>
</svg>