<?xml version="1.0" encoding="UTF-8"?>
<svg width="16px" height="18px" viewBox="0 0 16 18" version="1.1" xmlns="http://www.w3.org/2000/svg" xmlns:xlink="http://www.w3.org/1999/xlink">
    <defs></defs>
    <g id="Page-1" stroke="none" stroke-width="1" fill="none" fill-rule="evenodd">
        <g id="Home" transform="translate(-1726.000000, -35.000000)" fill-rule="nonzero" fill="#222222">
            <g id="navigation-and-logo" transform="translate(60.000000, 5.000000)">
                <path d="M1679.59437,30.2052336 C1678.92275,29.851575 1677.36043,29.9598167 1675.524,30.49259 C1674.12884,31.5967776 1669.588,35.5668014 1669.53424,40.5034606 C1669.52992,40.9024044 1668.97475,41.0139447 1668.81411,40.6473744 C1668.38163,39.6604761 1668.03019,38.0132424 1668.5048,35.4811788 C1668.57498,35.1066447 1668.09019,34.8867685 1667.84414,35.1812877 C1667.67884,35.3791574 1667.52204,35.5823992 1667.37481,35.7909187 C1664.47901,39.8924158 1666.54952,45.1492291 1669.95702,46.9763316 C1673.36452,48.8034812 1678.42912,48.3964794 1680.86856,44.0186526 C1683.30801,39.6409201 1681.2935,31.0999121 1679.59437,30.2052336 Z" id="ic_envato"></path>
            </g>
        </g>
    </g>
</svg>