<?xml version="1.0" encoding="UTF-8"?>
<svg width="20px" height="18px" viewBox="0 0 20 18" version="1.1" xmlns="http://www.w3.org/2000/svg" xmlns:xlink="http://www.w3.org/1999/xlink">
    <defs></defs>
    <g id="Page-1" stroke="none" stroke-width="1" fill="none" fill-rule="evenodd">
        <g id="Home" transform="translate(-1762.000000, -36.000000)" fill-rule="nonzero" fill="#222222">
            <g id="navigation-and-logo" transform="translate(60.000000, 5.000000)">
                <path d="M1718.78571,31.7712771 C1720.55786,31.7712771 1722,33.2156205 1722,34.9912648 C1722,36.7669091 1720.55786,38.2112524 1718.78571,38.2112524 C1718.665,38.2112524 1718.54607,38.2030236 1718.42857,38.1901436 L1718.42857,43.577183 C1718.42857,44.2984602 1717.93393,45.1338681 1717.3025,45.4784068 L1711.32536,48.7445476 C1711.01393,48.9148492 1710.61429,49 1710.21464,49 C1709.815,49 1709.415,48.9148492 1709.10357,48.7445476 L1703.12607,45.4784068 C1702.49464,45.1331526 1702,44.2973869 1702,43.5746786 L1702,36.4248748 C1702,35.7021665 1702.49464,34.866043 1703.12607,34.5211466 L1709.10321,31.2550058 C1709.72643,30.9144026 1710.70286,30.9151182 1711.3275,31.2564369 L1715.83429,33.7190119 C1716.32786,32.5744852 1717.46429,31.7712771 1718.78571,31.7712771 Z M1718.78571,33.2023828 C1718.195,33.2023828 1717.71429,33.6839498 1717.71429,34.275712 C1717.71429,34.5515576 1717.82143,34.8009277 1717.99286,34.9912648 C1717.82143,35.1816018 1717.71429,35.430972 1717.71429,35.7068176 C1717.71429,36.2985798 1718.195,36.7801468 1718.78571,36.7801468 C1719.37643,36.7801468 1719.85714,36.2985798 1719.85714,35.7068176 C1719.85714,35.430972 1719.75,35.1816018 1719.57857,34.9912648 C1719.75,34.8009277 1719.85714,34.5515576 1719.85714,34.275712 C1719.85714,33.683592 1719.37643,33.2023828 1718.78571,33.2023828 Z M1718.78571,33.9179356 C1718.9825,33.9179356 1719.14286,34.0782194 1719.14286,34.275712 C1719.14286,34.4732045 1718.9825,34.6334884 1718.78571,34.6334884 C1718.58893,34.6334884 1718.42857,34.4732045 1718.42857,34.275712 C1718.42857,34.0782194 1718.58893,33.9179356 1718.78571,33.9179356 Z M1718.78571,36.064594 C1718.58893,36.064594 1718.42857,35.9043102 1718.42857,35.7068176 C1718.42857,35.509325 1718.58893,35.3490412 1718.78571,35.3490412 C1718.9825,35.3490412 1719.14286,35.509325 1719.14286,35.7068176 C1719.14286,35.9043102 1718.9825,36.064594 1718.78571,36.064594 Z M1710.21429,40.8494957 C1710.21429,41.4451934 1709.63,41.9679047 1708.96429,41.9679047 C1708.29857,41.9679047 1707.71429,41.4451934 1707.71429,40.8494957 L1707.71429,37.4956996 L1705.92857,37.4956996 L1705.92857,40.8494957 C1705.92857,42.452334 1707.29036,43.7567868 1708.96429,43.7567868 C1710.63821,43.7567868 1712,42.452334 1712,40.8494957 L1712,37.4956996 L1710.21429,37.4956996 L1710.21429,40.8494957 Z M1712.71429,43.5778986 L1714.5,43.5778986 L1714.5,37.4956996 L1712.71429,37.4956996 L1712.71429,43.5778986 Z" id="ic_ui8"></path>
            </g>
        </g>
    </g>
</svg>