<?xml version="1.0" encoding="UTF-8"?>
<svg width="20px" height="18px" viewBox="0 0 20 18" version="1.1" xmlns="http://www.w3.org/2000/svg" xmlns:xlink="http://www.w3.org/1999/xlink">
    <defs></defs>
    <g id="Page-1" stroke="none" stroke-width="1" fill="none" fill-rule="evenodd">
        <g id="Project-Detail" transform="translate(-1762.000000, -36.000000)" fill-rule="nonzero" fill="#2F8BE6">
            <g id="navigation-and-logo">
                <path d="M1778.78571,36.7712771 C1780.55786,36.7712771 1782,38.2156205 1782,39.9912648 C1782,41.7669091 1780.55786,43.2112524 1778.78571,43.2112524 C1778.665,43.2112524 1778.54607,43.2030236 1778.42857,43.1901436 L1778.42857,48.577183 C1778.42857,49.2984602 1777.93393,50.1338681 1777.3025,50.4784068 L1771.32536,53.7445476 C1771.01393,53.9148492 1770.61429,54 1770.21464,54 C1769.815,54 1769.415,53.9148492 1769.10357,53.7445476 L1763.12607,50.4784068 C1762.49464,50.1331526 1762,49.2973869 1762,48.5746786 L1762,41.4248748 C1762,40.7021665 1762.49464,39.866043 1763.12607,39.5211466 L1769.10321,36.2550058 C1769.72643,35.9144026 1770.70286,35.9151182 1771.3275,36.2564369 L1775.83429,38.7190119 C1776.32786,37.5744852 1777.46429,36.7712771 1778.78571,36.7712771 Z M1778.78571,38.2023828 C1778.195,38.2023828 1777.71429,38.6839498 1777.71429,39.275712 C1777.71429,39.5515576 1777.82143,39.8009277 1777.99286,39.9912648 C1777.82143,40.1816018 1777.71429,40.430972 1777.71429,40.7068176 C1777.71429,41.2985798 1778.195,41.7801468 1778.78571,41.7801468 C1779.37643,41.7801468 1779.85714,41.2985798 1779.85714,40.7068176 C1779.85714,40.430972 1779.75,40.1816018 1779.57857,39.9912648 C1779.75,39.8009277 1779.85714,39.5515576 1779.85714,39.275712 C1779.85714,38.683592 1779.37643,38.2023828 1778.78571,38.2023828 Z M1778.78571,38.9179356 C1778.9825,38.9179356 1779.14286,39.0782194 1779.14286,39.275712 C1779.14286,39.4732045 1778.9825,39.6334884 1778.78571,39.6334884 C1778.58893,39.6334884 1778.42857,39.4732045 1778.42857,39.275712 C1778.42857,39.0782194 1778.58893,38.9179356 1778.78571,38.9179356 Z M1778.78571,41.064594 C1778.58893,41.064594 1778.42857,40.9043102 1778.42857,40.7068176 C1778.42857,40.509325 1778.58893,40.3490412 1778.78571,40.3490412 C1778.9825,40.3490412 1779.14286,40.509325 1779.14286,40.7068176 C1779.14286,40.9043102 1778.9825,41.064594 1778.78571,41.064594 Z M1770.21429,45.8494957 C1770.21429,46.4451934 1769.63,46.9679047 1768.96429,46.9679047 C1768.29857,46.9679047 1767.71429,46.4451934 1767.71429,45.8494957 L1767.71429,42.4956996 L1765.92857,42.4956996 L1765.92857,45.8494957 C1765.92857,47.452334 1767.29036,48.7567868 1768.96429,48.7567868 C1770.63821,48.7567868 1772,47.452334 1772,45.8494957 L1772,42.4956996 L1770.21429,42.4956996 L1770.21429,45.8494957 Z M1772.71429,48.5778986 L1774.5,48.5778986 L1774.5,42.4956996 L1772.71429,42.4956996 L1772.71429,48.5778986 Z" id="ic_ui8_hover"></path>
            </g>
        </g>
    </g>
</svg>